<svg xmlns="http://www.w3.org/2000/svg" version="1.1" xmlns:xlink="http://www.w3.org/1999/xlink" xmlns:svgjs="http://svgjs.com/svgjs" width="1440" height="560" preserveAspectRatio="none" viewBox="0 0 1440 560"><g mask="url(&quot;#SvgjsMask1109&quot;)" fill="none"><use xlink:href="#SvgjsG1111" transform="translate(0, 0)" fill="rgba(255, 120, 174, 1)"></use><use xlink:href="#SvgjsG1111" transform="translate(0, 528)" fill="rgba(255, 120, 174, 1)"></use><use xlink:href="#SvgjsG1111" transform="translate(528, 0)" fill="rgba(255, 120, 174, 1)"></use><use xlink:href="#SvgjsG1111" transform="translate(528, 528)" fill="rgba(255, 120, 174, 1)"></use><use xlink:href="#SvgjsG1111" transform="translate(1056, 0)" fill="rgba(255, 120, 174, 1)"></use><use xlink:href="#SvgjsG1111" transform="translate(1056, 528)" fill="rgba(255, 120, 174, 1)"></use></g><defs><mask id="SvgjsMask1109"><rect width="1440" height="560" fill="#ffffff"></rect></mask><g id="SvgjsG1110"><path d="M8 14.66l5.904-5.908c1.836-1.836 1.8-4.512 0.132-6.174A4.268 4.268 0 0 0 8 2.58a4.264 4.264 0 0 0-6.03-0.02C0.3 4.24 0.26 6.92 2.1 8.744L8 14.66z"></path></g><g id="SvgjsG1111"><use xlink:href="#SvgjsG1110" transform="translate(0, 0) scale(2.2)" fill="rgba(255, 120, 174, 1)"></use><use xlink:href="#SvgjsG1110" transform="translate(0, 52.800000000000004) scale(2.2)" fill="rgba(255, 120, 174, 1)"></use><use xlink:href="#SvgjsG1110" transform="translate(0, 105.60000000000001) scale(2.2)" fill="rgba(255, 120, 174, 1)"></use><use xlink:href="#SvgjsG1110" transform="translate(0, 158.4) scale(2.2)" fill="rgba(255, 120, 174, 1)"></use><use xlink:href="#SvgjsG1110" transform="translate(0, 211.20000000000002) scale(2.2)" fill="rgba(255, 120, 174, 1)"></use><use xlink:href="#SvgjsG1110" transform="translate(0, 264) scale(2.2)" fill="rgba(255, 120, 174, 1)"></use><use xlink:href="#SvgjsG1110" transform="translate(0, 316.8) scale(2.2)" fill="rgba(255, 120, 174, 1)"></use><use xlink:href="#SvgjsG1110" transform="translate(0, 369.6) scale(2.2)" fill="rgba(255, 120, 174, 1)"></use><use xlink:href="#SvgjsG1110" transform="translate(0, 422.40000000000003) scale(2.2)" fill="rgba(255, 120, 174, 1)"></use><use xlink:href="#SvgjsG1110" transform="translate(0, 475.20000000000005) scale(2.2)" fill="rgba(255, 120, 174, 1)"></use><use xlink:href="#SvgjsG1110" transform="translate(52.800000000000004, 0) scale(2.2)" fill="rgba(255, 120, 174, 1)"></use><use xlink:href="#SvgjsG1110" transform="translate(52.800000000000004, 52.800000000000004) scale(2.2)" fill="rgba(255, 120, 174, 1)"></use><use xlink:href="#SvgjsG1110" transform="translate(52.800000000000004, 105.60000000000001) scale(2.2)" fill="rgba(255, 120, 174, 1)"></use><use xlink:href="#SvgjsG1110" transform="translate(52.800000000000004, 158.4) scale(2.2)" fill="rgba(255, 120, 174, 1)"></use><use xlink:href="#SvgjsG1110" transform="translate(52.800000000000004, 211.20000000000002) scale(2.2)" fill="rgba(255, 120, 174, 1)"></use><use xlink:href="#SvgjsG1110" transform="translate(52.800000000000004, 264) scale(2.2)" fill="rgba(255, 120, 174, 1)"></use><use xlink:href="#SvgjsG1110" transform="translate(52.800000000000004, 316.8) scale(2.2)" fill="rgba(255, 120, 174, 1)"></use><use xlink:href="#SvgjsG1110" transform="translate(52.800000000000004, 369.6) scale(2.2)" fill="rgba(255, 120, 174, 1)"></use><use xlink:href="#SvgjsG1110" transform="translate(52.800000000000004, 422.40000000000003) scale(2.2)" fill="rgba(255, 120, 174, 1)"></use><use xlink:href="#SvgjsG1110" transform="translate(52.800000000000004, 475.20000000000005) scale(2.2)" fill="rgba(255, 120, 174, 1)"></use><use xlink:href="#SvgjsG1110" transform="translate(105.60000000000001, 0) scale(2.2)" fill="rgba(255, 120, 174, 1)"></use><use xlink:href="#SvgjsG1110" transform="translate(105.60000000000001, 52.800000000000004) scale(2.2)" fill="rgba(255, 120, 174, 1)"></use><use xlink:href="#SvgjsG1110" transform="translate(105.60000000000001, 105.60000000000001) scale(2.2)" fill="rgba(255, 120, 174, 1)"></use><use xlink:href="#SvgjsG1110" transform="translate(105.60000000000001, 158.4) scale(2.2)" fill="rgba(255, 120, 174, 1)"></use><use xlink:href="#SvgjsG1110" transform="translate(105.60000000000001, 211.20000000000002) scale(2.2)" fill="rgba(255, 120, 174, 1)"></use><use xlink:href="#SvgjsG1110" transform="translate(105.60000000000001, 264) scale(2.2)" fill="rgba(255, 120, 174, 1)"></use><use xlink:href="#SvgjsG1110" transform="translate(105.60000000000001, 316.8) scale(2.2)" fill="rgba(255, 120, 174, 1)"></use><use xlink:href="#SvgjsG1110" transform="translate(105.60000000000001, 369.6) scale(2.2)" fill="rgba(255, 120, 174, 1)"></use><use xlink:href="#SvgjsG1110" transform="translate(105.60000000000001, 422.40000000000003) scale(2.2)" fill="rgba(255, 120, 174, 1)"></use><use xlink:href="#SvgjsG1110" transform="translate(105.60000000000001, 475.20000000000005) scale(2.2)" fill="rgba(255, 120, 174, 1)"></use><use xlink:href="#SvgjsG1110" transform="translate(158.4, 0) scale(2.2)" fill="rgba(255, 120, 174, 1)"></use><use xlink:href="#SvgjsG1110" transform="translate(158.4, 52.800000000000004) scale(2.2)" fill="rgba(255, 120, 174, 1)"></use><use xlink:href="#SvgjsG1110" transform="translate(158.4, 105.60000000000001) scale(2.2)" fill="rgba(255, 120, 174, 1)"></use><use xlink:href="#SvgjsG1110" transform="translate(158.4, 158.4) scale(2.2)" fill="rgba(255, 120, 174, 1)"></use><use xlink:href="#SvgjsG1110" transform="translate(158.4, 211.20000000000002) scale(2.2)" fill="rgba(255, 120, 174, 1)"></use><use xlink:href="#SvgjsG1110" transform="translate(158.4, 264) scale(2.2)" fill="rgba(255, 120, 174, 1)"></use><use xlink:href="#SvgjsG1110" transform="translate(158.4, 316.8) scale(2.2)" fill="rgba(255, 120, 174, 1)"></use><use xlink:href="#SvgjsG1110" transform="translate(158.4, 369.6) scale(2.2)" fill="rgba(255, 120, 174, 1)"></use><use xlink:href="#SvgjsG1110" transform="translate(158.4, 422.40000000000003) scale(2.2)" fill="rgba(255, 120, 174, 1)"></use><use xlink:href="#SvgjsG1110" transform="translate(158.4, 475.20000000000005) scale(2.2)" fill="rgba(255, 120, 174, 1)"></use><use xlink:href="#SvgjsG1110" transform="translate(211.20000000000002, 0) scale(2.2)" fill="rgba(255, 120, 174, 1)"></use><use xlink:href="#SvgjsG1110" transform="translate(211.20000000000002, 52.800000000000004) scale(2.2)" fill="rgba(255, 120, 174, 1)"></use><use xlink:href="#SvgjsG1110" transform="translate(211.20000000000002, 105.60000000000001) scale(2.2)" fill="rgba(255, 120, 174, 1)"></use><use xlink:href="#SvgjsG1110" transform="translate(211.20000000000002, 158.4) scale(2.2)" fill="rgba(255, 120, 174, 1)"></use><use xlink:href="#SvgjsG1110" transform="translate(211.20000000000002, 211.20000000000002) scale(2.2)" fill="rgba(255, 120, 174, 1)"></use><use xlink:href="#SvgjsG1110" transform="translate(211.20000000000002, 264) scale(2.2)" fill="rgba(255, 120, 174, 1)"></use><use xlink:href="#SvgjsG1110" transform="translate(211.20000000000002, 316.8) scale(2.2)" fill="rgba(255, 120, 174, 1)"></use><use xlink:href="#SvgjsG1110" transform="translate(211.20000000000002, 369.6) scale(2.2)" fill="rgba(255, 120, 174, 1)"></use><use xlink:href="#SvgjsG1110" transform="translate(211.20000000000002, 422.40000000000003) scale(2.2)" fill="rgba(255, 120, 174, 1)"></use><use xlink:href="#SvgjsG1110" transform="translate(211.20000000000002, 475.20000000000005) scale(2.2)" fill="rgba(255, 120, 174, 1)"></use><use xlink:href="#SvgjsG1110" transform="translate(264, 0) scale(2.2)" fill="rgba(255, 120, 174, 1)"></use><use xlink:href="#SvgjsG1110" transform="translate(264, 52.800000000000004) scale(2.2)" fill="rgba(255, 120, 174, 1)"></use><use xlink:href="#SvgjsG1110" transform="translate(264, 105.60000000000001) scale(2.2)" fill="rgba(255, 120, 174, 1)"></use><use xlink:href="#SvgjsG1110" transform="translate(264, 158.4) scale(2.2)" fill="rgba(255, 120, 174, 1)"></use><use xlink:href="#SvgjsG1110" transform="translate(264, 211.20000000000002) scale(2.2)" fill="rgba(255, 120, 174, 1)"></use><use xlink:href="#SvgjsG1110" transform="translate(264, 264) scale(2.2)" fill="rgba(255, 120, 174, 1)"></use><use xlink:href="#SvgjsG1110" transform="translate(264, 316.8) scale(2.2)" fill="rgba(255, 120, 174, 1)"></use><use xlink:href="#SvgjsG1110" transform="translate(264, 369.6) scale(2.2)" fill="rgba(255, 120, 174, 1)"></use><use xlink:href="#SvgjsG1110" transform="translate(264, 422.40000000000003) scale(2.2)" fill="rgba(255, 120, 174, 1)"></use><use xlink:href="#SvgjsG1110" transform="translate(264, 475.20000000000005) scale(2.2)" fill="rgba(255, 120, 174, 1)"></use><use xlink:href="#SvgjsG1110" transform="translate(316.8, 0) scale(2.2)" fill="rgba(255, 120, 174, 1)"></use><use xlink:href="#SvgjsG1110" transform="translate(316.8, 52.800000000000004) scale(2.2)" fill="rgba(255, 120, 174, 1)"></use><use xlink:href="#SvgjsG1110" transform="translate(316.8, 105.60000000000001) scale(2.2)" fill="rgba(255, 120, 174, 1)"></use><use xlink:href="#SvgjsG1110" transform="translate(316.8, 158.4) scale(2.2)" fill="rgba(255, 120, 174, 1)"></use><use xlink:href="#SvgjsG1110" transform="translate(316.8, 211.20000000000002) scale(2.2)" fill="rgba(255, 120, 174, 1)"></use><use xlink:href="#SvgjsG1110" transform="translate(316.8, 264) scale(2.2)" fill="rgba(255, 120, 174, 1)"></use><use xlink:href="#SvgjsG1110" transform="translate(316.8, 316.8) scale(2.2)" fill="rgba(255, 120, 174, 1)"></use><use xlink:href="#SvgjsG1110" transform="translate(316.8, 369.6) scale(2.2)" fill="rgba(255, 120, 174, 1)"></use><use xlink:href="#SvgjsG1110" transform="translate(316.8, 422.40000000000003) scale(2.2)" fill="rgba(255, 120, 174, 1)"></use><use xlink:href="#SvgjsG1110" transform="translate(316.8, 475.20000000000005) scale(2.2)" fill="rgba(255, 120, 174, 1)"></use><use xlink:href="#SvgjsG1110" transform="translate(369.6, 0) scale(2.2)" fill="rgba(255, 120, 174, 1)"></use><use xlink:href="#SvgjsG1110" transform="translate(369.6, 52.800000000000004) scale(2.2)" fill="rgba(255, 120, 174, 1)"></use><use xlink:href="#SvgjsG1110" transform="translate(369.6, 105.60000000000001) scale(2.2)" fill="rgba(255, 120, 174, 1)"></use><use xlink:href="#SvgjsG1110" transform="translate(369.6, 158.4) scale(2.2)" fill="rgba(255, 120, 174, 1)"></use><use xlink:href="#SvgjsG1110" transform="translate(369.6, 211.20000000000002) scale(2.2)" fill="rgba(255, 120, 174, 1)"></use><use xlink:href="#SvgjsG1110" transform="translate(369.6, 264) scale(2.2)" fill="rgba(255, 120, 174, 1)"></use><use xlink:href="#SvgjsG1110" transform="translate(369.6, 316.8) scale(2.2)" fill="rgba(255, 120, 174, 1)"></use><use xlink:href="#SvgjsG1110" transform="translate(369.6, 369.6) scale(2.2)" fill="rgba(255, 120, 174, 1)"></use><use xlink:href="#SvgjsG1110" transform="translate(369.6, 422.40000000000003) scale(2.2)" fill="rgba(255, 120, 174, 1)"></use><use xlink:href="#SvgjsG1110" transform="translate(369.6, 475.20000000000005) scale(2.2)" fill="rgba(255, 120, 174, 1)"></use><use xlink:href="#SvgjsG1110" transform="translate(422.40000000000003, 0) scale(2.2)" fill="rgba(255, 120, 174, 1)"></use><use xlink:href="#SvgjsG1110" transform="translate(422.40000000000003, 52.800000000000004) scale(2.2)" fill="rgba(255, 120, 174, 1)"></use><use xlink:href="#SvgjsG1110" transform="translate(422.40000000000003, 105.60000000000001) scale(2.2)" fill="rgba(255, 120, 174, 1)"></use><use xlink:href="#SvgjsG1110" transform="translate(422.40000000000003, 158.4) scale(2.2)" fill="rgba(255, 120, 174, 1)"></use><use xlink:href="#SvgjsG1110" transform="translate(422.40000000000003, 211.20000000000002) scale(2.2)" fill="rgba(255, 120, 174, 1)"></use><use xlink:href="#SvgjsG1110" transform="translate(422.40000000000003, 264) scale(2.2)" fill="rgba(255, 120, 174, 1)"></use><use xlink:href="#SvgjsG1110" transform="translate(422.40000000000003, 316.8) scale(2.2)" fill="rgba(255, 120, 174, 1)"></use><use xlink:href="#SvgjsG1110" transform="translate(422.40000000000003, 369.6) scale(2.2)" fill="rgba(255, 120, 174, 1)"></use><use xlink:href="#SvgjsG1110" transform="translate(422.40000000000003, 422.40000000000003) scale(2.2)" fill="rgba(255, 120, 174, 1)"></use><use xlink:href="#SvgjsG1110" transform="translate(422.40000000000003, 475.20000000000005) scale(2.2)" fill="rgba(255, 120, 174, 1)"></use><use xlink:href="#SvgjsG1110" transform="translate(475.20000000000005, 0) scale(2.2)" fill="rgba(255, 120, 174, 1)"></use><use xlink:href="#SvgjsG1110" transform="translate(475.20000000000005, 52.800000000000004) scale(2.2)" fill="rgba(255, 120, 174, 1)"></use><use xlink:href="#SvgjsG1110" transform="translate(475.20000000000005, 105.60000000000001) scale(2.2)" fill="rgba(255, 120, 174, 1)"></use><use xlink:href="#SvgjsG1110" transform="translate(475.20000000000005, 158.4) scale(2.2)" fill="rgba(255, 120, 174, 1)"></use><use xlink:href="#SvgjsG1110" transform="translate(475.20000000000005, 211.20000000000002) scale(2.2)" fill="rgba(255, 120, 174, 1)"></use><use xlink:href="#SvgjsG1110" transform="translate(475.20000000000005, 264) scale(2.2)" fill="rgba(255, 120, 174, 1)"></use><use xlink:href="#SvgjsG1110" transform="translate(475.20000000000005, 316.8) scale(2.2)" fill="rgba(255, 120, 174, 1)"></use><use xlink:href="#SvgjsG1110" transform="translate(475.20000000000005, 369.6) scale(2.2)" fill="rgba(255, 120, 174, 1)"></use><use xlink:href="#SvgjsG1110" transform="translate(475.20000000000005, 422.40000000000003) scale(2.2)" fill="rgba(255, 120, 174, 1)"></use><use xlink:href="#SvgjsG1110" transform="translate(475.20000000000005, 475.20000000000005) scale(2.2)" fill="rgba(255, 120, 174, 1)"></use></g></defs></svg>